<svg width="38" height="35" viewBox="0 0 38 35" fill="none" xmlns="http://www.w3.org/2000/svg">
<path d="M19 20.4167C17.6805 20.4167 16.559 19.9913 15.6354 19.1406C14.7118 18.29 14.25 17.257 14.25 16.0417V7.29169C14.25 6.07641 14.7118 5.04342 15.6354 4.19273C16.559 3.34203 17.6805 2.91669 19 2.91669C20.3194 2.91669 21.4409 3.34203 22.3645 4.19273C23.2882 5.04342 23.75 6.07641 23.75 7.29169V16.0417C23.75 17.257 23.2882 18.29 22.3645 19.1406C21.4409 19.9913 20.3194 20.4167 19 20.4167ZM17.4166 30.625V26.1406C14.6722 25.8004 12.4027 24.6702 10.6083 22.75C8.81385 20.8299 7.91663 18.5938 7.91663 16.0417H11.0833C11.0833 18.059 11.8552 19.7787 13.3989 21.2005C14.9427 22.6224 16.8097 23.3334 19 23.3334C21.1902 23.3334 23.0573 22.6224 24.601 21.2005C26.1448 19.7787 26.9166 18.059 26.9166 16.0417H30.0833C30.0833 18.5938 29.1861 20.8299 27.3916 22.75C25.5972 24.6702 23.3277 25.8004 20.5833 26.1406V30.625H17.4166Z" fill="#21005D"/>
</svg>
