<svg width="17" height="11" viewBox="0 0 17 11" fill="none" xmlns="http://www.w3.org/2000/svg">
<path d="M2 6.66699C2.55228 6.66699 3 7.11471 3 7.66699V9.66699C3 10.2193 2.55228 10.667 2 10.667H1C0.447715 10.667 0 10.2193 0 9.66699V7.66699C0 7.11471 0.447715 6.66699 1 6.66699H2ZM6.66699 4.66699C7.21905 4.66726 7.66699 5.11487 7.66699 5.66699V9.66699C7.66699 10.2191 7.21905 10.6667 6.66699 10.667H5.66699C5.11471 10.667 4.66699 10.2193 4.66699 9.66699V5.66699C4.66699 5.11471 5.11471 4.66699 5.66699 4.66699H6.66699ZM16 0C16.5523 0 17 0.447715 17 1V9.66699C16.9998 10.2191 16.5522 10.667 16 10.667H15C14.4478 10.667 14.0002 10.2191 14 9.66699V1C14 0.447715 14.4477 0 15 0H16ZM11.334 2.33301C11.886 2.33327 12.334 2.78089 12.334 3.33301V9.66602C12.334 10.2181 11.886 10.6658 11.334 10.666H10.334C9.7817 10.666 9.33398 10.2183 9.33398 9.66602V3.33301C9.33398 2.78072 9.7817 2.33301 10.334 2.33301H11.334Z" fill="black"/>
</svg>
