<!-- filepath: c:\Users\anand\Downloads\fridgepal-signup\public\wifi.svg -->
<svg width="16" height="11" viewBox="0 0 16 11" fill="none" xmlns="http://www.w3.org/2000/svg">
<path d="M5.44359 8.42661C6.72312 7.34439 8.59769 7.34439 9.87722 8.42661C9.94144 8.48481 9.97831 8.56722 9.98008 8.65388C9.98181 8.74061 9.94795 8.8243 9.88604 8.88506L7.88277 10.9069C7.82407 10.9663 7.74391 11 7.66041 11C7.57689 11 7.49676 10.9663 7.43804 10.9069L5.4338 8.88506C5.37201 8.82428 5.33798 8.74053 5.33976 8.65388C5.34159 8.56716 5.37925 8.48477 5.44359 8.42661ZM2.77029 5.72882C5.52691 3.16486 9.79584 3.16491 12.5525 5.72882C12.6146 5.78886 12.6504 5.87166 12.6514 5.95805C12.6523 6.04449 12.6183 6.12786 12.5574 6.18923L11.3995 7.35984C11.2802 7.47931 11.087 7.48197 10.9646 7.36572C10.0593 6.546 8.88163 6.0922 7.66041 6.09225C6.43995 6.09276 5.26287 6.54652 4.35821 7.36572C4.23576 7.4819 4.04257 7.47929 3.92327 7.35984L2.76539 6.18923C2.70453 6.12797 2.67054 6.04441 2.67135 5.95805C2.67229 5.87166 2.70813 5.78885 2.77029 5.72882ZM0.0969864 3.03887C4.32518 -1.01283 10.9958 -1.01308 15.2238 3.03887C15.2849 3.099 15.3193 3.18139 15.3198 3.26711C15.3203 3.35294 15.2863 3.43543 15.2258 3.49633L14.0659 4.66695C13.9465 4.78679 13.7532 4.78804 13.632 4.66988C12.0211 3.13842 9.8831 2.28471 7.66041 2.28458C5.43744 2.28458 3.29897 3.13827 1.68784 4.66988C1.56668 4.78824 1.3733 4.78701 1.25388 4.66695L0.0940476 3.49633C0.0335964 3.43538 -0.00055788 3.35296 6.89493e-06 3.26711C0.000624755 3.18134 0.0357864 3.09897 0.0969864 3.03887Z" fill="black"/>
</svg>