<svg width="16" height="11" viewBox="0 0 16 11" fill="none" xmlns="http://www.w3.org/2000/svg">
<path d="M5.44408 8.42736C6.7237 7.34506 8.59748 7.34509 9.87712 8.42736C9.9415 8.48558 9.97919 8.56787 9.98097 8.65465C9.9826 8.74126 9.94875 8.82517 9.88692 8.88585L7.88348 10.9079C7.8248 10.9672 7.74452 10.9999 7.66109 11C7.57768 11 7.49741 10.9671 7.4387 10.9079L5.43428 8.88585C5.37237 8.82501 5.3384 8.74045 5.34023 8.65367C5.34218 8.56715 5.3799 8.48543 5.44408 8.42736ZM2.77054 5.72933C5.5274 3.16514 9.79671 3.16519 12.5536 5.72933C12.6157 5.78938 12.6516 5.87218 12.6525 5.95858C12.6534 6.04503 12.6194 6.12841 12.5585 6.18978L11.4005 7.3605C11.2812 7.47998 11.088 7.48264 10.9655 7.36637C10.0602 6.54658 8.88242 6.09275 7.66109 6.09279C6.44052 6.0933 5.26334 6.5471 4.35859 7.36637C4.23613 7.48256 4.04293 7.47995 3.92362 7.3605L2.76564 6.18978C2.70477 6.12852 2.67077 6.04495 2.67159 5.95858C2.67253 5.87218 2.70837 5.78936 2.77054 5.72933ZM0.096995 3.03914C4.32556 -1.01292 10.9968 -1.01317 15.2252 3.03914C15.2863 3.09927 15.3206 3.18168 15.3212 3.2674C15.3217 3.35324 15.2876 3.43573 15.2271 3.49665L14.0672 4.66736C13.9477 4.78722 13.7544 4.78847 13.6332 4.6703C12.0222 3.1387 9.88398 2.28491 7.66109 2.28478C5.43792 2.28478 3.29927 3.13854 1.68799 4.6703C1.56682 4.78867 1.37342 4.78744 1.25399 4.66736L0.094056 3.49665C0.0335994 3.43569 -0.00055793 3.35325 6.89555e-06 3.2674C0.000624811 3.18162 0.0357896 3.09925 0.096995 3.03914Z" fill="black"/>
</svg>
